<svg xmlns="http://www.w3.org/2000/svg" viewBox="0 0 120.43 108.72" width="120.43" height="108.72" fill="none">
  <g stroke="#d1d2fa" stroke-width="2" stroke-miterlimit="10">
    <line x1="58.74" y1="15.04" x2="58.74" y2="53.84"/>
    <line x1="99.45" y1="36.93" x2="65.84" y2="56.33"/>
    <line x1="100.43" y1="78.03" x2="64.86" y2="62.51"/>
    <line x1="53.59" y1="65.92" x2="27.42" y2="94.58"/>
    <line x1="9.66" y1="50.52" x2="25.01" y2="99.19"/>
    <line x1="49.95" y1="58.01" x2="11.6" y2="52.08"/>
    <line x1="60.27" y1="11.38" x2="9.66" y2="50.52"/>
    <line x1="99.45" y1="37.84" x2="58.61" y2="11.8"/>
    <line x1="106.51" y1="82.1" x2="101.51" y2="33.92"/>
    <line x1="28.51" y1="97.04" x2="109.37" y2="80.25"/>
  </g>
  <circle cx="58.74" cy="59.95" r="14.57" fill="#7e3dec"/>
  <circle cx="100.6" cy="35.63" r="9.75" fill="#06b6d5"/>
  <circle cx="107.57" cy="80.25" r="12.86" fill="#6466f1"/>
  <circle cx="23.97" cy="97.73" r="11" fill="#ae95fb"/>
  <circle cx="9.43" cy="50.52" r="9.43" fill="#61a6fb"/>
  <circle cx="58.74" cy="12.94" r="12.94" fill="#3b83f6"/>
</svg>
